<svg xmlns="http://www.w3.org/2000/svg" version="1.1" xmlns:xlink="http://www.w3.org/1999/xlink" xmlns:svgjs="http://svgjs.dev/svgjs" width="1000" height="623" viewBox="0 0 1000 623"><g transform="matrix(1,0,0,1,-0.6060606060606233,-0.21121389651744948)"><svg viewBox="0 0 396 247" data-background-color="#333333" preserveAspectRatio="xMidYMid meet" height="623" width="1000" xmlns="http://www.w3.org/2000/svg" xmlns:xlink="http://www.w3.org/1999/xlink"><g id="tight-bounds" transform="matrix(1,0,0,1,0.2400000000000091,0.08373969894030608)"><svg viewBox="0 0 395.52 246.8325206021194" height="246.8325206021194" width="395.52"><g><svg viewBox="0 0 397.4975999999999 248.06668320512995" height="246.8325206021194" width="395.52"><g><rect width="397.4975999999999" height="5.268720543794419" x="0" y="130.7350230752515" fill="#7fc37e" opacity="1" stroke-width="0" stroke="transparent" fill-opacity="1" class="rect-s$-0" data-fill-palette-color="secondary" rx="1%" id="s$-0" data-palette-color="#7fc37e"></rect></g><g transform="matrix(1,0,0,1,0.9887999999999693,149.7962057755758)"><svg viewBox="0 0 395.52 98.27047742955415" height="98.27047742955415" width="395.52"><g id="textblocktransform"><svg viewBox="0 0 395.52 98.27047742955415" height="98.27047742955415" width="395.52" id="textblock"><g><svg viewBox="0 0 395.52 58.42382180539273" height="58.42382180539273" width="395.52"><g transform="matrix(1,0,0,1,0,0)"><svg width="395.52" viewBox="0.3 -37.5 255.87 37.8" height="58.42382180539273" data-palette-color="#7fc37e"><path d="M30.15-36.3L30.15-36.3Q31.65-36.3 33.2-36.58 34.75-36.85 35.95-37.35L35.95-37.35Q35.9-34.15 34.33-32.58 32.75-31 29.7-31L29.7-31Q28.25-31 26.48-31.25 24.7-31.5 21.95-32.1L21.95-32.1 15.05 0 7.85 0 14.95-33.1 14.35-33.1Q9.5-33.1 7.23-30.63 4.95-28.15 4.95-23L4.95-23Q4.95-22.05 5.08-21.35 5.2-20.65 5.5-20L5.5-20Q5.6-19.8 5.63-19.73 5.65-19.65 5.65-19.6L5.65-19.6Q2.85-19.6 1.58-20.78 0.3-21.95 0.3-24.45L0.3-24.45Q0.3-30.4 4.78-33.93 9.25-37.45 17.35-37.45L17.35-37.45Q19-37.45 20.53-37.33 22.05-37.2 24.45-36.85L24.45-36.85Q26.55-36.5 27.73-36.4 28.9-36.3 30.15-36.3ZM33.35-19L29.35 0 22.15 0 27.45-25 34.65-25 34-21.9Q36.2-23.75 37.47-24.38 38.75-25 40.05-25L40.05-25Q41.6-25 42.55-23.93 43.5-22.85 43.5-21.25L43.5-21.25Q43.5-19.7 42.5-18.65 41.5-17.6 39.9-17.6L39.9-17.6Q39.05-17.6 38.57-18 38.1-18.4 37.9-19.65L37.9-19.65Q37.75-20.45 37.55-20.68 37.35-20.9 37-20.9L37-20.9Q36.15-20.9 35.4-20.55 34.65-20.2 33.35-19L33.35-19ZM58.24-22.7L58.24-22.7 58.24-22.35 58.8-25 66-25 62.39-8Q62.3-7.55 62.24-7.18 62.2-6.8 62.2-6.4L62.2-6.4Q62.2-5.3 62.7-4.78 63.2-4.25 64.25-4.25L64.25-4.25Q65.55-4.25 66.59-5.48 67.64-6.7 68.3-8.95L68.3-8.95 70.39-8.95Q68.8-4.35 66.25-2.02 63.7 0.3 60.34 0.3L60.34 0.3Q58.19 0.3 56.92-0.9 55.64-2.1 55.45-4.3L55.45-4.3Q53.89-2 52.02-0.85 50.14 0.3 47.99 0.3L47.99 0.3Q44.89 0.3 43.12-1.8 41.34-3.9 41.34-7.75L41.34-7.75Q41.34-10.55 42.2-13.6 43.04-16.65 44.54-19.15L44.54-19.15Q46.39-22.1 48.84-23.68 51.3-25.25 54.2-25.25L54.2-25.25Q56.14-25.25 57.2-24.58 58.24-23.9 58.24-22.7ZM55.39-8.95L57.8-20.25Q57.8-21 57.24-21.58 56.7-22.15 55.74-22.15L55.74-22.15Q52.99-22.15 50.87-17.55 48.74-12.95 48.74-8.45L48.74-8.45Q48.74-6.5 49.3-5.53 49.84-4.55 51.24-4.55L51.24-4.55Q52.55-4.55 53.77-5.8 54.99-7.05 55.39-8.95L55.39-8.95ZM83.79-20.75L83.79-20.75Q82.99-20.75 82.49-21.53 81.99-22.3 81.99-23.3L81.99-23.3Q81.99-24.55 82.82-25.28 83.64-26 85.09-26L85.09-26Q86.64-26 87.44-24.85 88.24-23.7 88.24-21.65L88.24-21.65Q88.24-18.25 87.37-14.53 86.49-10.8 84.99-7.75L84.99-7.75Q82.99-3.8 80.19-1.75 77.39 0.3 73.99 0.3L73.99 0.3Q71.04 0.3 69.44-1.23 67.84-2.75 67.84-5.6L67.84-5.6Q67.84-6.15 67.92-6.78 67.99-7.4 68.09-8L68.09-8 71.69-25 78.89-25 75.29-8Q75.19-7.45 75.12-6.98 75.04-6.5 75.04-6.2L75.04-6.2Q75.04-5.4 75.47-4.98 75.89-4.55 76.74-4.55L76.74-4.55Q78.49-4.55 80.17-6.38 81.84-8.2 83.19-11.55L83.19-11.55Q84.19-13.95 84.79-16.6 85.39-19.25 85.39-21.25L85.39-21.25Q85.29-21.05 84.77-20.9 84.24-20.75 83.79-20.75ZM107.44-20.65L107.44-20.65Q107.44-16.5 104.04-13.43 100.64-10.35 95.94-10.1L95.94-10.1Q95.89-9.25 95.87-8.83 95.84-8.4 95.84-8.1L95.84-8.1Q95.84-5.8 96.62-4.85 97.39-3.9 99.44-3.9L99.44-3.9Q101.79-3.9 103.77-4.98 105.74-6.05 108.29-8.95L108.29-8.95 109.99-8.95Q107.09-4.25 103.69-1.98 100.29 0.3 96.24 0.3L96.24 0.3Q92.39 0.3 90.42-1.7 88.44-3.7 88.44-7.65L88.44-7.65Q88.44-10.5 89.34-13.7 90.24-16.9 91.74-19.4L91.74-19.4Q93.59-22.4 96.17-23.93 98.74-25.45 101.94-25.45L101.94-25.45Q104.69-25.45 106.06-24.28 107.44-23.1 107.44-20.65ZM102.34-22.8L102.34-22.8Q100.64-22.8 98.92-19.78 97.19-16.75 96.34-12.5L96.34-12.5Q99.24-12.7 101.42-15.18 103.59-17.65 103.59-20.75L103.59-20.75Q103.59-21.8 103.29-22.3 102.99-22.8 102.34-22.8ZM107.84-5.7L107.84-5.7Q107.84-6.35 107.94-7.18 108.04-8 108.24-8.95L108.24-8.95 113.59-34 120.99-35 115.24-8Q115.14-7.55 115.09-7.18 115.04-6.8 115.04-6.4L115.04-6.4Q115.04-5.4 115.51-4.98 115.99-4.55 117.09-4.55L117.09-4.55Q118.49-4.55 119.74-5.78 120.99-7 121.59-8.95L121.59-8.95 123.69-8.95Q122.09-4.4 119.39-2.05 116.69 0.3 113.19 0.3L113.19 0.3Q110.69 0.3 109.26-1.28 107.84-2.85 107.84-5.7ZM128.24-34L128.24-34Q130.78-35.65 133.71-36.58 136.64-37.5 139.44-37.5L139.44-37.5Q139.78-37.5 140.21-37.48 140.64-37.45 141.44-37.4L141.44-37.4 141.89-6.65 152.39-37.25 158.94-37.25 158.94-6.65 169.69-37.25 173.19-37.25 159.29 0 151.89 0 151.89-25.45 141.99 0 134.64 0 134.64-34.15Q130.64-32.9 128.59-30.1 126.54-27.3 126.54-23.05L126.54-23.05Q126.54-22.1 126.66-21.4 126.79-20.7 127.09-20.05L127.09-20.05Q127.19-19.85 127.21-19.78 127.24-19.7 127.24-19.65L127.24-19.65Q124.44-19.65 123.16-20.83 121.89-22 121.89-24.5L121.89-24.5Q121.89-27 123.56-29.5 125.24-32 128.24-34ZM182.03-31.65L182.03-31.65Q182.03-30 180.86-28.85 179.68-27.7 178.03-27.7L178.03-27.7Q176.38-27.7 175.23-28.85 174.08-30 174.08-31.65L174.08-31.65Q174.08-33.3 175.23-34.48 176.38-35.65 178.03-35.65L178.03-35.65Q179.68-35.65 180.86-34.48 182.03-33.3 182.03-31.65ZM169.28-5.7L169.28-5.7Q169.28-6.35 169.38-7.18 169.48-8 169.68-8.95L169.68-8.95 173.08-25 180.28-25 176.68-8Q176.58-7.55 176.53-7.18 176.48-6.8 176.48-6.4L176.48-6.4Q176.48-5.4 176.96-4.98 177.43-4.55 178.53-4.55L178.53-4.55Q179.93-4.55 181.18-5.78 182.43-7 183.03-8.95L183.03-8.95 185.13-8.95Q183.53-4.4 180.83-2.05 178.13 0.3 174.63 0.3L174.63 0.3Q172.13 0.3 170.71-1.28 169.28-2.85 169.28-5.7ZM184.38-23L184.78-25 186.43-25 187.93-31.9 195.33-32.9 193.63-25 196.63-25 196.23-23 193.23-23 190.03-8Q189.93-7.55 189.88-7.18 189.83-6.8 189.83-6.4L189.83-6.4Q189.83-5.4 190.31-4.98 190.78-4.55 191.88-4.55L191.88-4.55Q193.28-4.55 194.53-5.78 195.78-7 196.38-8.95L196.38-8.95 198.48-8.95Q196.88-4.4 194.18-2.05 191.48 0.3 187.98 0.3L187.98 0.3Q185.48 0.3 184.06-1.28 182.63-2.85 182.63-5.7L182.63-5.7Q182.63-6.35 182.73-7.18 182.83-8 183.03-8.95L183.03-8.95 186.03-23 184.38-23ZM208.88-5.35L208.88-5.35Q208.88-6.25 209.1-7.6 209.33-8.95 210.03-11.9L210.03-11.9Q210.73-14.75 210.93-16 211.13-17.25 211.13-18.1L211.13-18.1Q211.13-19.35 210.65-20 210.18-20.65 209.28-20.65L209.28-20.65Q208.08-20.65 206.95-19.23 205.83-17.8 205.48-16.25L205.48-16.25 202.03 0 194.83 0 202.08-34 209.48-35 206.78-22.4Q208.03-23.8 209.48-24.5 210.93-25.2 212.63-25.2L212.63-25.2Q215.28-25.2 216.73-23.75 218.18-22.3 218.18-19.55L218.18-19.55Q218.18-18.4 217.9-16.82 217.63-15.25 216.83-12L216.83-12Q216.18-9.45 215.98-8.4 215.78-7.35 215.78-6.65L215.78-6.65Q215.78-5.6 216.28-5.08 216.78-4.55 217.78-4.55L217.78-4.55Q219.03-4.55 219.93-5.4 220.83-6.25 221.98-8.95L221.98-8.95 224.08-8.95Q222.48-4.3 220.2-2 217.93 0.3 214.78 0.3L214.78 0.3Q211.98 0.3 210.43-1.23 208.88-2.75 208.88-5.35ZM228.63-34L228.63-34Q231.17-35.65 234.1-36.58 237.03-37.5 239.82-37.5L239.82-37.5Q240.17-37.5 240.6-37.48 241.03-37.45 241.82-37.4L241.82-37.4 233.88 0 226.67 0 233.92-33.95Q230.53-32.55 228.72-29.75 226.92-26.95 226.92-23.05L226.92-23.05Q226.92-22.1 227.05-21.4 227.17-20.7 227.47-20.05L227.47-20.05Q227.57-19.85 227.6-19.78 227.63-19.7 227.63-19.65L227.63-19.65Q224.82-19.65 223.55-20.83 222.28-22 222.28-24.5L222.28-24.5Q222.28-27 223.95-29.5 225.63-32 228.63-34ZM242.07-23L242.47-25 244.12-25 245.62-31.9 253.02-32.9 251.32-25 254.32-25 253.92-23 250.92-23 247.72-8Q247.62-7.55 247.57-7.18 247.52-6.8 247.52-6.4L247.52-6.4Q247.52-5.4 248-4.98 248.47-4.55 249.57-4.55L249.57-4.55Q250.97-4.55 252.22-5.78 253.47-7 254.07-8.95L254.07-8.95 256.17-8.95Q254.57-4.4 251.87-2.05 249.17 0.3 245.67 0.3L245.67 0.3Q243.17 0.3 241.75-1.28 240.32-2.85 240.32-5.7L240.32-5.7Q240.32-6.35 240.42-7.18 240.52-8 240.72-8.95L240.72-8.95 243.72-23 242.07-23Z" opacity="1" transform="matrix(1,0,0,1,0,0)" fill="#7fc37e" class="undefined-text-0" data-fill-palette-color="primary" id="text-0"></path></svg></g></svg></g><g transform="matrix(1,0,0,1,75.54432,72.21628396192261)"><svg viewBox="0 0 244.43135999999998 26.054193467631524" height="26.054193467631524" width="244.43135999999998"><g transform="matrix(1,0,0,1,0,0)"><svg width="244.43135999999998" viewBox="2.1499999999999995 -41.5 511.26 54.5" height="26.054193467631524" data-palette-color="#7fc37e"><path d="M17.45-10.85L17.45-14.8Q14.6-13.7 12.63-12.65 10.65-11.6 9.45-10.55 8.25-9.5 7.73-8.45 7.2-7.4 7.2-6.3L7.2-6.3Q7.2-4.65 8.3-3.6 9.4-2.55 11.2-2.55L11.2-2.55Q12.5-2.55 13.63-3.2 14.75-3.85 15.6-4.98 16.45-6.1 16.95-7.63 17.45-9.15 17.45-10.85L17.45-10.85ZM10.25-13.8L17.45-16.95 17.45-19Q17.45-25.1 12.25-25.1L12.25-25.1Q11.4-25.1 10.8-24.95 10.2-24.8 9.8-24.45 9.4-24.1 9.08-23.45 8.75-22.8 8.45-21.85L8.45-21.85Q7.9-20.4 7.38-19.93 6.85-19.45 5.85-19.45L5.85-19.45Q3.35-19.45 3.35-21.95L3.35-21.95Q3.35-24.35 5.9-25.68 8.45-27 13.15-27L13.15-27Q18.15-27 20.25-25.23 22.35-23.45 22.35-19.2L22.35-19.2 22.35-8Q22.35-2.3 24.6-2.3L24.6-2.3Q25.3-2.3 25.95-2.48 26.6-2.65 27.05-3.4L27.05-3.4 27.75-2.2Q27.15-1.05 25.55-0.28 23.95 0.5 22.2 0.5L22.2 0.5Q20 0.5 18.93-0.9 17.85-2.3 17.85-4.85L17.85-4.85 17.6-4.85Q16.3-2.4 14-0.98 11.7 0.45 8.9 0.45L8.9 0.45Q5.75 0.45 3.95-1.15 2.15-2.75 2.15-5.45L2.15-5.45Q2.15-6.65 2.58-7.75 3-8.85 3.95-9.85 4.9-10.85 6.45-11.83 8-12.8 10.25-13.8L10.25-13.8ZM38.5-14.55L38.5-7.85Q38.5-5.8 38.6-4.63 38.7-3.45 39.12-2.83 39.55-2.2 40.37-2 41.2-1.8 42.65-1.7L42.65-1.7 42.65 0 29.55 0 29.55-1.7Q30.95-1.8 31.77-2 32.6-2.2 33.05-2.8 33.5-3.4 33.62-4.5 33.75-5.6 33.75-7.5L33.75-7.5 33.75-14.15Q33.75-20.1 33.45-21.4L33.45-21.4Q33.3-22.05 33.07-22.48 32.85-22.9 32.4-23.13 31.95-23.35 31.25-23.43 30.55-23.5 29.45-23.5L29.45-23.5 29.45-25.1 37.45-27 38.05-22.05 38.25-22.05Q40.15-24.4 42.7-25.7 45.25-27 48.25-27L48.25-27Q50.55-27 52.45-26.25 54.35-25.5 55.35-24.2L55.35-24.2Q56.2-23.05 56.55-21.23 56.9-19.4 56.9-16.2L56.9-16.2 56.9-7.85Q56.9-5.8 57.02-4.63 57.15-3.45 57.55-2.83 57.95-2.2 58.77-2 59.6-1.8 60.95-1.7L60.95-1.7 60.95 0 48 0 48-1.7Q49.4-1.75 50.22-1.98 51.05-2.2 51.47-2.8 51.9-3.4 52.02-4.53 52.15-5.65 52.15-7.5L52.15-7.5 52.15-14.1Q52.15-16.95 51.85-18.9 51.55-20.85 50.87-22.05 50.2-23.25 49.1-23.78 48-24.3 46.45-24.3L46.45-24.3Q44.2-24.3 42.32-23.13 40.45-21.95 39.4-19.9L39.4-19.9Q39.15-19.4 38.97-18.95 38.8-18.5 38.7-17.9 38.6-17.3 38.55-16.53 38.5-15.75 38.5-14.55L38.5-14.55ZM86.1-16.4L75.2 7.85Q72.9 13 68.05 13L68.05 13Q64.9 13 64.9 10.65L64.9 10.65Q64.9 9.4 65.77 8.83 66.65 8.25 69 7.85L69 7.85Q70.05 7.7 70.8 7.43 71.55 7.15 72.15 6.73 72.75 6.3 73.22 5.65 73.7 5 74.15 4.05L74.15 4.05 75.9 0.55 66.3-20.3Q65.65-21.7 65.17-22.53 64.7-23.35 64.17-23.83 63.65-24.3 63-24.48 62.35-24.65 61.35-24.75L61.35-24.75 61.35-26.5 74.6-26.5 74.6-24.75Q71.25-24.75 71.25-23.1L71.25-23.1Q71.25-22.45 71.65-21.05 72.05-19.65 72.65-18.2L72.65-18.2 78.15-4.9 78.4-4.9 82.95-16.15Q83.6-17.8 84.02-18.85 84.45-19.9 84.67-20.58 84.9-21.25 84.97-21.7 85.05-22.15 85.05-22.55L85.05-22.55Q85.05-23.85 84.32-24.3 83.6-24.75 81.55-24.75L81.55-24.75 81.55-26.5 92.55-26.5 92.55-24.75Q91.6-24.75 90.95-24.5 90.3-24.25 89.62-23.38 88.95-22.5 88.12-20.85 87.3-19.2 86.1-16.4L86.1-16.4ZM127.94-38.5L128.44-28.95 126.39-28.95Q126.24-31.1 125.69-32.55 125.14-34 124.12-34.83 123.09-35.65 121.54-36 119.99-36.35 117.84-36.35L117.84-36.35Q115.99-36.35 114.87-36.27 113.74-36.2 113.14-36 112.54-35.8 112.37-35.52 112.19-35.25 112.19-34.8L112.19-34.8 112.19-8.05Q112.19-6.45 112.42-5.3 112.64-4.15 113.32-3.43 113.99-2.7 115.27-2.33 116.54-1.95 118.64-1.9L118.64-1.9 118.64 0 99.74 0 99.74-1.9Q101.84-1.95 103.14-2.33 104.44-2.7 105.12-3.43 105.79-4.15 106.02-5.3 106.24-6.45 106.24-8.05L106.24-8.05 106.24-34.8Q106.24-35.25 106.07-35.52 105.89-35.8 105.37-36 104.84-36.2 103.89-36.27 102.94-36.35 101.34-36.35L101.34-36.35Q99.39-36.35 97.72-36.2 96.04-36.05 94.82-35.33 93.59-34.6 92.84-33.1 92.09-31.6 92.04-28.95L92.04-28.95 90.19-28.95 90.19-38.5 127.94-38.5ZM139.14-27L139.14-7.95Q139.14-6 139.32-4.83 139.49-3.65 139.99-2.98 140.49-2.3 141.39-2.05 142.29-1.8 143.79-1.75L143.79-1.75 143.79 0 129.44 0 129.44-1.75Q130.94-1.8 131.89-2.08 132.84-2.35 133.37-2.98 133.89-3.6 134.07-4.73 134.24-5.85 134.24-7.6L134.24-7.6 134.24-14Q134.24-16.9 134.17-18.78 134.09-20.65 133.89-21.35L133.89-21.35Q133.64-22.5 132.74-22.93 131.84-23.35 129.34-23.35L129.34-23.35 129.34-25.1 139.14-27ZM133.39-37.15L133.39-37.15Q133.39-38.45 134.29-39.35 135.19-40.25 136.49-40.25L136.49-40.25Q137.79-40.25 138.69-39.35 139.59-38.45 139.59-37.15L139.59-37.15Q139.59-35.85 138.69-34.95 137.79-34.05 136.49-34.05L136.49-34.05Q135.19-34.05 134.29-34.95 133.39-35.85 133.39-37.15ZM155.84-14.35L155.84-8Q155.84-5.9 155.94-4.7 156.04-3.5 156.46-2.88 156.89-2.25 157.69-2.05 158.49-1.85 159.94-1.75L159.94-1.75 159.94 0 146.64 0 146.64-1.75Q148.09-1.85 148.94-2.05 149.79-2.25 150.24-2.85 150.69-3.45 150.81-4.58 150.94-5.7 150.94-7.6L150.94-7.6 150.94-14Q150.94-16.85 150.86-18.75 150.79-20.65 150.59-21.35L150.59-21.35Q150.44-22 150.24-22.38 150.04-22.75 149.59-22.98 149.14-23.2 148.41-23.28 147.69-23.35 146.54-23.35L146.54-23.35 146.54-25.1 154.69-27 155.34-22 155.59-22Q157.84-24.55 160.31-25.78 162.79-27 165.79-27L165.79-27Q168.94-27 171.09-25.73 173.24-24.45 174.09-22.05L174.09-22.05 174.29-22.05Q176.14-24.4 178.79-25.7 181.44-27 184.44-27L184.44-27Q186.79-27 188.71-26.23 190.64-25.45 191.64-24.1L191.64-24.1Q192.54-22.95 192.91-21.08 193.29-19.2 193.29-15.95L193.29-15.95 193.29-8Q193.29-5.95 193.41-4.75 193.54-3.55 193.94-2.9 194.34-2.25 195.16-2.05 195.99-1.85 197.44-1.75L197.44-1.75 197.44 0 184.14 0 184.14-1.75Q185.54-1.8 186.39-2.02 187.24-2.25 187.69-2.88 188.14-3.5 188.26-4.6 188.39-5.7 188.39-7.6L188.39-7.6 188.39-13.9Q188.39-16.75 188.09-18.73 187.79-20.7 187.09-21.93 186.39-23.15 185.26-23.7 184.14-24.25 182.54-24.25L182.54-24.25Q180.34-24.25 178.41-23.03 176.49-21.8 175.39-19.75L175.39-19.75Q175.14-19.25 174.96-18.78 174.79-18.3 174.69-17.73 174.59-17.15 174.56-16.35 174.54-15.55 174.54-14.35L174.54-14.35 174.54-8Q174.54-5.95 174.64-4.75 174.74-3.55 175.16-2.9 175.59-2.25 176.44-2.05 177.29-1.85 178.74-1.75L178.74-1.75 178.74 0 165.44 0 165.44-1.75Q166.84-1.85 167.69-2.05 168.54-2.25 168.96-2.85 169.39-3.45 169.51-4.58 169.64-5.7 169.64-7.6L169.64-7.6 169.64-13.9Q169.64-16.8 169.34-18.78 169.04-20.75 168.36-21.98 167.69-23.2 166.59-23.73 165.49-24.25 163.89-24.25L163.89-24.25Q161.64-24.25 159.66-23.03 157.69-21.8 156.69-19.75L156.69-19.75Q156.44-19.25 156.26-18.78 156.09-18.3 155.99-17.73 155.89-17.15 155.86-16.35 155.84-15.55 155.84-14.35L155.84-14.35ZM222.99-6.05L224.54-4.65Q220.29 0.5 213.99 0.5L213.99 0.5Q211.04 0.5 208.64-0.48 206.24-1.45 204.51-3.23 202.79-5 201.84-7.48 200.89-9.95 200.89-12.95L200.89-12.95Q200.89-16 201.89-18.6 202.89-21.2 204.71-23.05 206.54-24.9 209.06-25.95 211.59-27 214.59-27L214.59-27Q219.44-27 222.09-24.38 224.74-21.75 224.74-16.85L224.74-16.85Q224.74-16.15 224.46-16 224.19-15.85 223.19-15.85L223.19-15.85 206.74-15.85Q206.64-15.45 206.59-14.88 206.54-14.3 206.54-13.6L206.54-13.6Q206.54-11 207.16-8.88 207.79-6.75 208.96-5.25 210.14-3.75 211.76-2.93 213.39-2.1 215.39-2.1L215.39-2.1Q217.49-2.1 219.29-3.03 221.09-3.95 222.99-6.05L222.99-6.05ZM207.09-18.15L216.29-18.15Q217.29-18.15 217.89-18.2 218.49-18.25 218.79-18.4 219.09-18.55 219.19-18.82 219.29-19.1 219.29-19.55L219.29-19.55Q219.29-21.85 217.81-23.23 216.34-24.6 213.79-24.6L213.79-24.6Q208.39-24.6 207.09-18.15L207.09-18.15ZM246.38-12.4L230.93-12.4 230.93-16.55 246.38-16.55 246.38-12.4ZM267.68-10.85L267.68-14.8Q264.83-13.7 262.86-12.65 260.88-11.6 259.68-10.55 258.48-9.5 257.96-8.45 257.43-7.4 257.43-6.3L257.43-6.3Q257.43-4.65 258.53-3.6 259.63-2.55 261.43-2.55L261.43-2.55Q262.73-2.55 263.86-3.2 264.98-3.85 265.83-4.98 266.68-6.1 267.18-7.63 267.68-9.15 267.68-10.85L267.68-10.85ZM260.48-13.8L267.68-16.95 267.68-19Q267.68-25.1 262.48-25.1L262.48-25.1Q261.63-25.1 261.03-24.95 260.43-24.8 260.03-24.45 259.63-24.1 259.31-23.45 258.98-22.8 258.68-21.85L258.68-21.85Q258.13-20.4 257.61-19.93 257.08-19.45 256.08-19.45L256.08-19.45Q253.58-19.45 253.58-21.95L253.58-21.95Q253.58-24.35 256.13-25.68 258.68-27 263.38-27L263.38-27Q268.38-27 270.48-25.23 272.58-23.45 272.58-19.2L272.58-19.2 272.58-8Q272.58-2.3 274.83-2.3L274.83-2.3Q275.53-2.3 276.18-2.48 276.83-2.65 277.28-3.4L277.28-3.4 277.98-2.2Q277.38-1.05 275.78-0.28 274.18 0.5 272.43 0.5L272.43 0.5Q270.23 0.5 269.16-0.9 268.08-2.3 268.08-4.85L268.08-4.85 267.83-4.85Q266.53-2.4 264.23-0.98 261.93 0.45 259.13 0.45L259.13 0.45Q255.98 0.45 254.18-1.15 252.38-2.75 252.38-5.45L252.38-5.45Q252.38-6.65 252.81-7.75 253.23-8.85 254.18-9.85 255.13-10.85 256.68-11.83 258.23-12.8 260.48-13.8L260.48-13.8ZM288.73-14.55L288.73-7.85Q288.73-5.8 288.83-4.63 288.93-3.45 289.35-2.83 289.78-2.2 290.6-2 291.43-1.8 292.88-1.7L292.88-1.7 292.88 0 279.78 0 279.78-1.7Q281.18-1.8 282-2 282.83-2.2 283.28-2.8 283.73-3.4 283.85-4.5 283.98-5.6 283.98-7.5L283.98-7.5 283.98-14.15Q283.98-20.1 283.68-21.4L283.68-21.4Q283.53-22.05 283.3-22.48 283.08-22.9 282.63-23.13 282.18-23.35 281.48-23.43 280.78-23.5 279.68-23.5L279.68-23.5 279.68-25.1 287.68-27 288.28-22.05 288.48-22.05Q290.38-24.4 292.93-25.7 295.48-27 298.48-27L298.48-27Q300.78-27 302.68-26.25 304.58-25.5 305.58-24.2L305.58-24.2Q306.43-23.05 306.78-21.23 307.13-19.4 307.13-16.2L307.13-16.2 307.13-7.85Q307.13-5.8 307.25-4.63 307.38-3.45 307.78-2.83 308.18-2.2 309-2 309.83-1.8 311.18-1.7L311.18-1.7 311.18 0 298.23 0 298.23-1.7Q299.63-1.75 300.45-1.98 301.28-2.2 301.7-2.8 302.13-3.4 302.25-4.53 302.38-5.65 302.38-7.5L302.38-7.5 302.38-14.1Q302.38-16.95 302.08-18.9 301.78-20.85 301.1-22.05 300.43-23.25 299.33-23.78 298.23-24.3 296.68-24.3L296.68-24.3Q294.43-24.3 292.55-23.13 290.68-21.95 289.63-19.9L289.63-19.9Q289.38-19.4 289.2-18.95 289.03-18.5 288.93-17.9 288.83-17.3 288.78-16.53 288.73-15.75 288.73-14.55L288.73-14.55ZM336.33-16.4L325.43 7.85Q323.13 13 318.28 13L318.28 13Q315.13 13 315.13 10.65L315.13 10.65Q315.13 9.4 316 8.83 316.88 8.25 319.23 7.85L319.23 7.85Q320.28 7.7 321.03 7.43 321.78 7.15 322.38 6.73 322.98 6.3 323.45 5.65 323.93 5 324.38 4.05L324.38 4.05 326.13 0.55 316.53-20.3Q315.88-21.7 315.4-22.53 314.93-23.35 314.4-23.83 313.88-24.3 313.23-24.48 312.58-24.65 311.58-24.75L311.58-24.75 311.58-26.5 324.83-26.5 324.83-24.75Q321.48-24.75 321.48-23.1L321.48-23.1Q321.48-22.45 321.88-21.05 322.28-19.65 322.88-18.2L322.88-18.2 328.38-4.9 328.63-4.9 333.18-16.15Q333.83-17.8 334.25-18.85 334.68-19.9 334.9-20.58 335.13-21.25 335.2-21.7 335.28-22.15 335.28-22.55L335.28-22.55Q335.28-23.85 334.55-24.3 333.83-24.75 331.78-24.75L331.78-24.75 331.78-26.5 342.78-26.5 342.78-24.75Q341.83-24.75 341.18-24.5 340.53-24.25 339.85-23.38 339.18-22.5 338.35-20.85 337.53-19.2 336.33-16.4L336.33-16.4ZM376.02-30L382.72-7.55 390.52-29.25Q391.22-31.2 391.52-32.35 391.82-33.5 391.82-34.35L391.82-34.35Q391.82-35.65 391-36.13 390.17-36.6 388.07-36.6L388.07-36.6 388.07-38.5 400.22-38.5 400.22-36.6Q397.92-36.6 396.75-35.65 395.57-34.7 394.77-32.55L394.77-32.55 382.22 0.5 380.47 0.5 370.87-27.95 360.22 0.5 358.47 0.5 348.07-28.2Q347.17-30.6 346.45-32.23 345.72-33.85 344.9-34.8 344.07-35.75 343.02-36.15 341.97-36.55 340.47-36.55L340.47-36.55 340.47-38.5 356.77-38.5 356.77-36.55Q354.22-36.55 353.2-36.1 352.17-35.65 352.17-34.35L352.17-34.35Q352.17-33.7 352.37-32.85 352.57-32 352.97-30.85L352.97-30.85 360.57-7.7 366.72-25Q367.42-26.95 368.1-28.63 368.77-30.3 369.17-31.65L369.17-31.65Q368.47-33.1 367.9-34.05 367.32-35 366.75-35.55 366.17-36.1 365.55-36.33 364.92-36.55 364.22-36.55L364.22-36.55 364.22-38.5 379.52-38.5 379.52-36.55Q378.07-36.55 377.17-36.45 376.27-36.35 375.8-36.13 375.32-35.9 375.15-35.5 374.97-35.1 374.97-34.55L374.97-34.55Q374.97-33.8 375.25-32.73 375.52-31.65 376.02-30L376.02-30ZM411.17-14.35L411.17-7.95Q411.17-5.9 411.27-4.7 411.37-3.5 411.8-2.88 412.22-2.25 413.02-2.05 413.82-1.85 415.27-1.75L415.27-1.75 415.27 0 401.97 0 401.97-1.75Q403.42-1.85 404.27-2.05 405.12-2.25 405.57-2.85 406.02-3.45 406.15-4.58 406.27-5.7 406.27-7.6L406.27-7.6 406.27-28.55Q406.27-31.5 406.2-33.25 406.12-35 405.92-35.9L405.92-35.9Q405.82-36.5 405.6-36.88 405.37-37.25 404.92-37.48 404.47-37.7 403.72-37.8 402.97-37.9 401.87-37.9L401.87-37.9 401.87-39.6 411.07-41.5 411.07-22.45 411.27-22.45Q412.02-23.45 413.15-24.28 414.27-25.1 415.57-25.7 416.87-26.3 418.3-26.65 419.72-27 421.07-27L421.07-27Q423.37-27 425.3-26.2 427.22-25.4 428.27-24.05L428.27-24.05Q429.12-22.9 429.52-21.03 429.92-19.15 429.92-15.95L429.92-15.95 429.92-7.95Q429.92-5.9 430.02-4.73 430.12-3.55 430.55-2.9 430.97-2.25 431.77-2.05 432.57-1.85 434.02-1.75L434.02-1.75 434.02 0 420.77 0 420.77-1.75Q422.17-1.8 423.02-2.02 423.87-2.25 424.3-2.85 424.72-3.45 424.85-4.58 424.97-5.7 424.97-7.6L424.97-7.6 424.97-13.9Q424.97-19.5 423.67-21.88 422.37-24.25 419.32-24.25L419.32-24.25Q416.97-24.25 415.05-23.05 413.12-21.85 412.02-19.75L412.02-19.75Q411.77-19.2 411.6-18.73 411.42-18.25 411.32-17.65 411.22-17.05 411.2-16.28 411.17-15.5 411.17-14.35L411.17-14.35ZM459.72-6.05L461.27-4.65Q457.02 0.5 450.72 0.5L450.72 0.5Q447.77 0.5 445.37-0.48 442.97-1.45 441.24-3.23 439.52-5 438.57-7.48 437.62-9.95 437.62-12.95L437.62-12.95Q437.62-16 438.62-18.6 439.62-21.2 441.44-23.05 443.27-24.9 445.79-25.95 448.32-27 451.32-27L451.32-27Q456.17-27 458.82-24.38 461.47-21.75 461.47-16.85L461.47-16.85Q461.47-16.15 461.19-16 460.92-15.85 459.92-15.85L459.92-15.85 443.47-15.85Q443.37-15.45 443.32-14.88 443.27-14.3 443.27-13.6L443.27-13.6Q443.27-11 443.89-8.88 444.52-6.75 445.69-5.25 446.87-3.75 448.49-2.93 450.12-2.1 452.12-2.1L452.12-2.1Q454.22-2.1 456.02-3.03 457.82-3.95 459.72-6.05L459.72-6.05ZM443.82-18.15L453.02-18.15Q454.02-18.15 454.62-18.2 455.22-18.25 455.52-18.4 455.82-18.55 455.92-18.82 456.02-19.1 456.02-19.55L456.02-19.55Q456.02-21.85 454.54-23.23 453.07-24.6 450.52-24.6L450.52-24.6Q445.12-24.6 443.82-18.15L443.82-18.15ZM474.92-9.65L474.92-7.95Q474.92-5.9 475.01-4.7 475.12-3.5 475.54-2.88 475.96-2.25 476.76-2.05 477.56-1.85 479.01-1.75L479.01-1.75 479.01 0 465.71 0 465.71-1.75Q467.17-1.8 468.01-2.02 468.87-2.25 469.31-2.85 469.76-3.45 469.89-4.58 470.01-5.7 470.01-7.6L470.01-7.6 470.01-13.45Q470.01-16.85 469.94-18.75 469.87-20.65 469.44-21.55 469.01-22.45 468.12-22.63 467.21-22.8 465.62-22.8L465.62-22.8 465.62-24.55 474.37-26.45 475.06-20.25 475.26-20.25Q475.92-21.75 476.89-23 477.87-24.25 479.01-25.13 480.17-26 481.42-26.5 482.67-27 483.96-27L483.96-27Q485.56-27 486.49-26.23 487.42-25.45 487.42-24.15L487.42-24.15Q487.42-22.95 486.67-22.28 485.92-21.6 484.51-21.6L484.51-21.6Q483.71-21.6 483.17-21.8 482.62-22 482.19-22.23 481.76-22.45 481.39-22.65 481.01-22.85 480.56-22.85L480.56-22.85Q479.21-22.85 477.87-21.13 476.51-19.4 475.76-16.75L475.76-16.75Q475.37-15.3 475.14-13.48 474.92-11.65 474.92-9.65L474.92-9.65ZM511.66-6.05L513.21-4.65Q508.96 0.5 502.66 0.5L502.66 0.5Q499.71 0.5 497.31-0.48 494.91-1.45 493.19-3.23 491.46-5 490.51-7.48 489.56-9.95 489.56-12.95L489.56-12.95Q489.56-16 490.56-18.6 491.56-21.2 493.39-23.05 495.21-24.9 497.74-25.95 500.26-27 503.26-27L503.26-27Q508.11-27 510.76-24.38 513.41-21.75 513.41-16.85L513.41-16.85Q513.41-16.15 513.14-16 512.86-15.85 511.86-15.85L511.86-15.85 495.41-15.85Q495.31-15.45 495.26-14.88 495.21-14.3 495.21-13.6L495.21-13.6Q495.21-11 495.84-8.88 496.46-6.75 497.64-5.25 498.81-3.75 500.44-2.93 502.06-2.1 504.06-2.1L504.06-2.1Q506.16-2.1 507.96-3.03 509.76-3.95 511.66-6.05L511.66-6.05ZM495.76-18.15L504.96-18.15Q505.96-18.15 506.56-18.2 507.16-18.25 507.46-18.4 507.76-18.55 507.86-18.82 507.96-19.1 507.96-19.55L507.96-19.55Q507.96-21.85 506.49-23.23 505.01-24.6 502.46-24.6L502.46-24.6Q497.06-24.6 495.76-18.15L495.76-18.15Z" opacity="1" transform="matrix(1,0,0,1,0,0)" fill="#7fc37e" class="undefined-text-1" data-fill-palette-color="secondary" id="text-1"></path></svg></g></svg></g></svg></g></svg></g><g transform="matrix(1,0,0,1,76.53311999999997,0)"><svg viewBox="0 0 244.43135999999998 116.94256091872161" height="116.94256091872161" width="244.43135999999998"><g><svg xmlns="http://www.w3.org/2000/svg" xmlns:xlink="http://www.w3.org/1999/xlink" version="1.1" x="8" y="0" viewBox="5 29.665000000000006 90.38800106854669 46.27299999999998" enable-background="new 0 0 100 100" xml:space="preserve" height="116.94256091872161" width="228.43135999999998" class="icon-icon-0" data-fill-palette-color="accent" id="icon-0"><g fill="#7fdbff" data-fill-palette-color="accent"><path fill="#7fdbff" d="M93.757 51.274l-22.892-2.693L58.699 35.673c-0.349-0.37-0.835-0.58-1.344-0.58h-11.51v-1.732h7.738c1.02 0 1.848-0.827 1.848-1.848s-0.827-1.848-1.848-1.848H20.206c-1.02 0-1.848 0.827-1.848 1.848s0.827 1.848 1.848 1.848h5.197v1.732h-9.624c-1.02 0-1.848 0.827-1.848 1.848 0 0.901 0.658 1.616 1.511 1.78l-9.249 10.49c-0.178 0.139-0.322 0.305-0.44 0.499l-0.291 0.33C5.164 50.377 5 50.811 5 51.262v15.552c0 1.02 0.827 1.848 1.848 1.848h11.82c0.733 4.126 4.326 7.276 8.659 7.276 4.334 0 7.928-3.15 8.66-7.276h34.419c0.733 4.126 4.326 7.276 8.659 7.276 4.334 0 7.928-3.15 8.66-7.276h5.815c1.02 0 1.848-0.827 1.848-1.848V53.109C95.389 52.172 94.688 51.383 93.757 51.274zM65.99 48.798H45.96V38.789h10.597L65.99 48.798zM30.402 38.789l-3.098 10.009h-15.82l8.824-10.009H30.402zM34.27 38.789h7.994v10.009H31.172L34.27 38.789zM29.098 33.361h13.05v1.732h-13.05V33.361zM27.327 72.242c-2.823 0-5.119-2.296-5.119-5.119s2.296-5.12 5.119-5.12 5.12 2.297 5.12 5.12S30.15 72.242 27.327 72.242zM79.066 72.242c-2.823 0-5.119-2.296-5.119-5.119s2.296-5.12 5.119-5.12c2.823 0 5.12 2.297 5.12 5.12S81.889 72.242 79.066 72.242zM91.693 64.966h-4.109c-0.969-3.816-4.404-6.66-8.518-6.66-4.113 0-7.548 2.843-8.517 6.66H35.845c-0.969-3.816-4.404-6.66-8.518-6.66-4.113 0-7.548 2.843-8.517 6.66H8.696v-7.237h3.849c1.02 0 1.848-0.827 1.848-1.848s-0.827-1.848-1.848-1.848H8.696v-1.54h63.133c0.086 0 0.16-0.038 0.243-0.049l19.621 2.308V64.966z" data-fill-palette-color="accent"></path><path fill="#7fdbff" d="M49.655 54.803h-3.388c-1.02 0-1.848 0.827-1.848 1.848 0 1.02 0.827 1.848 1.848 1.848h3.388c1.02 0 1.848-0.827 1.848-1.848C51.503 55.63 50.676 54.803 49.655 54.803z" data-fill-palette-color="accent"></path></g></svg></g></svg></g><g><rect width="0" height="5.268720543794419" y="110.6738403749272" x="320.96448" fill="#7fc37e" data-fill-palette-color="secondary"></rect><rect width="0" height="5.268720543794419" y="110.6738403749272" x="76.53311999999997" fill="#7fc37e" data-fill-palette-color="secondary"></rect></g></svg></g><defs></defs></svg><rect width="395.52" height="246.8325206021194" fill="none" stroke="none" visibility="hidden"></rect></g></svg></g></svg>